<svg xmlns="http://www.w3.org/2000/svg" aria-label="Illustrative mounting bracket with two upright bores and two base holes" class="bracket-svg" role="img" viewBox="0 0 600 415"><g fill="none" opacity=".7" stroke="#c9c9c9" stroke-width=".75"><path d="M263.65 171.25L3.85 300.25"></path><path d="M306.95 192.75L47.15 321.75"></path><path d="M350.25 214.25L90.45 343.25"></path><path d="M393.55 235.75L133.75 364.75"></path><path d="M436.85 257.25L177.05 386.25"></path><path d="M480.15 278.75L220.35 407.75"></path><path d="M523.45 300.25L263.65 429.25"></path><path d="M566.75 321.75L306.95 450.75"></path><path d="M610.05 343.25L350.25 472.25"></path><path d="M242.00 182.00L588.40 354.00"></path><path d="M198.70 203.50L545.10 375.50"></path><path d="M155.40 225.00L501.80 397.00"></path><path d="M112.10 246.50L458.50 418.50"></path><path d="M68.80 268.00L415.20 440.00"></path><path d="M25.50 289.50L371.90 461.50"></path><path d="M-17.80 311.00L328.60 483.00"></path></g><ellipse cx="299" cy="300" fill="#111" opacity=".045" rx="153" ry="28"></ellipse><polygon fill="#dfdfdf" points="242.00,185.00 458.50,292.50 458.50,137.50 242.00,30.00" stroke="#5b5b5b" stroke-linejoin="round" stroke-width="1.2"></polygon><polygon fill="#f2f2f2" points="242.00,30.00 458.50,137.50 441.18,146.10 224.68,38.60" stroke="#5b5b5b" stroke-linejoin="round" stroke-width="1.2"></polygon><polygon fill="#bcbcbc" points="458.50,292.50 441.18,301.10 441.18,146.10 458.50,137.50" stroke="#5b5b5b" stroke-linejoin="round" stroke-width="1.2"></polygon><polygon fill="#e6e6e6" points="224.68,193.60 441.18,301.10 441.18,146.10 224.68,38.60" stroke="#5b5b5b" stroke-linejoin="round" stroke-width="1.2"></polygon><polygon fill="#818181" points="306.95,141.95 306.87,139.95 306.62,137.88 306.20,135.77 305.63,133.64 304.90,131.51 304.03,129.39 303.02,127.31 301.88,125.29 300.62,123.35 299.25,121.50 297.79,119.77 296.26,118.16 294.66,116.71 293.01,115.41 291.33,114.29 289.63,113.35 287.93,112.60 286.25,112.06 284.60,111.71 283.00,111.58 281.47,111.66 280.01,111.94 278.64,112.43 277.38,113.13 276.24,114.01 275.23,115.09 274.36,116.34 273.63,117.75 273.06,119.31 272.64,121.01 272.39,122.83 272.31,124.75 272.39,126.75 272.64,128.82 273.06,130.93 273.63,133.06 274.36,135.19 275.23,137.31 276.24,139.39 277.38,141.41 278.64,143.35 280.01,145.20 281.47,146.93 283.00,148.54 284.60,149.99 286.25,151.29 287.93,152.41 289.63,153.35 291.33,154.10 293.01,154.64 294.66,154.99 296.26,155.12 297.79,155.04 299.25,154.76 300.62,154.27 301.88,153.57 303.02,152.69 304.03,151.61 304.90,150.36 305.63,148.95 306.20,147.39 306.62,145.69 306.87,143.87 306.95,141.95" stroke="#555" stroke-linejoin="round" stroke-width="1.2"></polygon><polygon fill="#c4c4c4" points="305.43,143.70 305.37,142.12 305.17,140.49 304.85,138.83 304.40,137.15 303.82,135.47 303.14,133.81 302.34,132.17 301.44,130.58 300.45,129.05 299.37,127.59 298.22,126.23 297.01,124.97 295.75,123.82 294.46,122.80 293.13,121.91 291.80,121.17 290.46,120.59 289.13,120.16 287.84,119.89 286.58,119.78 285.37,119.84 284.22,120.07 283.14,120.45 282.15,121.00 281.25,121.70 280.45,122.54 279.77,123.53 279.19,124.64 278.74,125.87 278.42,127.21 278.22,128.64 278.16,130.15 278.22,131.73 278.42,133.36 278.74,135.02 279.19,136.70 279.77,138.38 280.45,140.04 281.25,141.68 282.15,143.27 283.14,144.80 284.22,146.26 285.37,147.62 286.58,148.88 287.84,150.03 289.13,151.05 290.46,151.94 291.80,152.67 293.13,153.26 294.46,153.69 295.75,153.96 297.01,154.07 298.22,154.01 299.37,153.78 300.45,153.40 301.44,152.85 302.34,152.15 303.14,151.31 303.82,150.32 304.40,149.21 304.85,147.98 305.17,146.64 305.37,145.21 305.43,143.70" stroke="#a5a5a5" stroke-linejoin="round" stroke-width="0.6"></polygon><polygon fill="#818181" points="393.55,184.95 393.47,182.95 393.22,180.88 392.80,178.77 392.23,176.64 391.50,174.51 390.63,172.39 389.62,170.31 388.48,168.29 387.22,166.35 385.85,164.50 384.39,162.77 382.86,161.16 381.26,159.71 379.61,158.41 377.93,157.29 376.23,156.35 374.53,155.60 372.85,155.06 371.20,154.71 369.60,154.58 368.07,154.66 366.61,154.94 365.24,155.43 363.98,156.13 362.84,157.01 361.83,158.09 360.96,159.34 360.23,160.75 359.66,162.31 359.24,164.01 358.99,165.83 358.91,167.75 358.99,169.75 359.24,171.82 359.66,173.93 360.23,176.06 360.96,178.19 361.83,180.31 362.84,182.39 363.98,184.41 365.24,186.35 366.61,188.20 368.07,189.93 369.60,191.54 371.20,192.99 372.85,194.29 374.53,195.41 376.23,196.35 377.93,197.10 379.61,197.64 381.26,197.99 382.86,198.12 384.39,198.04 385.85,197.76 387.22,197.27 388.48,196.57 389.62,195.69 390.63,194.61 391.50,193.36 392.23,191.95 392.80,190.39 393.22,188.69 393.47,186.87 393.55,184.95" stroke="#555" stroke-linejoin="round" stroke-width="1.2"></polygon><polygon fill="#c4c4c4" points="392.03,186.70 391.97,185.12 391.77,183.49 391.45,181.83 391.00,180.15 390.42,178.47 389.74,176.81 388.94,175.17 388.04,173.58 387.05,172.05 385.97,170.59 384.82,169.23 383.61,167.97 382.35,166.82 381.06,165.80 379.73,164.91 378.39,164.18 377.06,163.59 375.73,163.16 374.44,162.89 373.18,162.78 371.97,162.84 370.82,163.07 369.74,163.45 368.75,164.00 367.85,164.70 367.05,165.54 366.37,166.53 365.79,167.64 365.34,168.87 365.02,170.21 364.82,171.64 364.76,173.15 364.82,174.73 365.02,176.36 365.34,178.02 365.79,179.70 366.37,181.38 367.05,183.04 367.85,184.68 368.75,186.27 369.74,187.80 370.82,189.26 371.97,190.62 373.18,191.88 374.44,193.03 375.73,194.05 377.06,194.94 378.39,195.67 379.73,196.26 381.06,196.69 382.35,196.96 383.61,197.07 384.82,197.01 385.97,196.78 387.05,196.40 388.04,195.85 388.94,195.15 389.74,194.31 390.42,193.32 391.00,192.21 391.45,190.98 391.77,189.64 391.97,188.21 392.03,186.70" stroke="#a5a5a5" stroke-linejoin="round" stroke-width="0.6"></polygon><polygon fill="none" points="400.05,188.17 399.93,185.42 399.59,182.58 399.02,179.68 398.23,176.75 397.23,173.82 396.03,170.90 394.64,168.05 393.07,165.27 391.34,162.59 389.46,160.05 387.46,157.67 385.34,155.47 383.14,153.47 380.88,151.69 378.56,150.14 376.23,148.85 373.90,147.82 371.58,147.07 369.32,146.60 367.12,146.42 365.00,146.52 363.00,146.91 361.12,147.59 359.39,148.54 357.82,149.76 356.43,151.24 355.23,152.96 354.23,154.90 353.44,157.05 352.87,159.39 352.53,161.89 352.42,164.53 352.53,167.28 352.87,170.12 353.44,173.02 354.23,175.95 355.23,178.88 356.43,181.80 357.82,184.65 359.39,187.43 361.12,190.11 363.00,192.65 365.00,195.03 367.12,197.23 369.32,199.23 371.58,201.01 373.90,202.56 376.23,203.85 378.56,204.88 380.88,205.63 383.14,206.10 385.34,206.28 387.46,206.18 389.46,205.79 391.34,205.11 393.07,204.16 394.64,202.94 396.03,201.46 397.23,199.74 398.23,197.80 399.02,195.65 399.59,193.31 399.93,190.81 400.05,188.17" stroke="#ea580c" stroke-linejoin="round" stroke-width="1.6"></polygon><polygon fill="#ddd" points="242.00,205.00 458.50,312.50 328.60,377.00 112.10,269.50" stroke="#5b5b5b" stroke-linejoin="round" stroke-width="1.2"></polygon><polygon fill="#f3f3f3" points="224.68,193.60 441.18,301.10 328.60,357.00 112.10,249.50" stroke="#5b5b5b" stroke-linejoin="round" stroke-width="1.2"></polygon><polygon fill="#bbb" points="441.18,321.10 328.60,377.00 328.60,357.00 441.18,301.10" stroke="#5b5b5b" stroke-linejoin="round" stroke-width="1.2"></polygon><polygon fill="#d0d0d0" points="112.10,269.50 328.60,377.00 328.60,357.00 112.10,249.50" stroke="#5b5b5b" stroke-linejoin="round" stroke-width="1.2"></polygon><polygon fill="#8b8b8b" points="220.35,260.25 219.24,260.75 218.03,261.20 216.74,261.58 215.38,261.90 213.97,262.15 212.51,262.33 211.03,262.44 209.53,262.48 208.02,262.44 206.54,262.33 205.08,262.15 203.67,261.90 202.31,261.58 201.02,261.20 199.81,260.75 198.70,260.25 197.69,259.70 196.80,259.10 196.02,258.46 195.38,257.78 194.88,257.08 194.51,256.36 194.29,255.62 194.22,254.88 194.29,254.13 194.51,253.39 194.88,252.67 195.38,251.97 196.02,251.29 196.80,250.65 197.69,250.05 198.70,249.50 199.81,249.00 201.02,248.55 202.31,248.17 203.67,247.85 205.08,247.60 206.54,247.42 208.02,247.31 209.53,247.27 211.03,247.31 212.51,247.42 213.97,247.60 215.38,247.85 216.74,248.17 218.03,248.55 219.24,249.00 220.35,249.50 221.36,250.05 222.25,250.65 223.03,251.29 223.67,251.97 224.17,252.67 224.54,253.39 224.76,254.13 224.83,254.88 224.76,255.62 224.54,256.36 224.17,257.08 223.67,257.78 223.03,258.46 222.25,259.10 221.36,259.70 220.35,260.25" stroke="#555" stroke-linejoin="round" stroke-width="1.2"></polygon><polygon fill="#c8c8c8" points="215.37,259.93 214.55,260.30 213.65,260.63 212.70,260.91 211.70,261.15 210.65,261.33 209.57,261.47 208.47,261.55 207.36,261.58 206.25,261.55 205.15,261.47 204.07,261.33 203.02,261.15 202.02,260.91 201.07,260.63 200.17,260.30 199.35,259.93 198.60,259.52 197.94,259.08 197.37,258.60 196.89,258.10 196.52,257.58 196.25,257.05 196.09,256.50 196.03,255.95 196.09,255.40 196.25,254.85 196.52,254.32 196.89,253.80 197.37,253.30 197.94,252.82 198.60,252.38 199.35,251.97 200.17,251.60 201.07,251.27 202.02,250.99 203.02,250.75 204.07,250.57 205.15,250.43 206.25,250.35 207.36,250.32 208.47,250.35 209.57,250.43 210.65,250.57 211.70,250.75 212.70,250.99 213.65,251.27 214.55,251.60 215.37,251.97 216.12,252.38 216.78,252.82 217.35,253.30 217.83,253.80 218.20,254.32 218.47,254.85 218.63,255.40 218.69,255.95 218.63,256.50 218.47,257.05 218.20,257.58 217.83,258.10 217.35,258.60 216.78,259.08 216.12,259.52 215.37,259.93" stroke="#b1b1b1" stroke-linejoin="round" stroke-width="0.5"></polygon><polygon fill="#8b8b8b" points="328.60,314.00 327.49,314.50 326.28,314.95 324.99,315.33 323.63,315.65 322.22,315.90 320.76,316.08 319.28,316.19 317.77,316.23 316.27,316.19 314.79,316.08 313.33,315.90 311.92,315.65 310.56,315.33 309.27,314.95 308.06,314.50 306.95,314.00 305.94,313.45 305.05,312.85 304.27,312.21 303.63,311.53 303.13,310.83 302.76,310.11 302.54,309.37 302.47,308.62 302.54,307.88 302.76,307.14 303.13,306.42 303.63,305.72 304.27,305.04 305.05,304.40 305.94,303.80 306.95,303.25 308.06,302.75 309.27,302.30 310.56,301.92 311.92,301.60 313.33,301.35 314.79,301.17 316.27,301.06 317.77,301.02 319.28,301.06 320.76,301.17 322.22,301.35 323.63,301.60 324.99,301.92 326.28,302.30 327.49,302.75 328.60,303.25 329.61,303.80 330.50,304.40 331.28,305.04 331.92,305.72 332.42,306.42 332.79,307.14 333.01,307.88 333.08,308.62 333.01,309.37 332.79,310.11 332.42,310.83 331.92,311.53 331.28,312.21 330.50,312.85 329.61,313.45 328.60,314.00" stroke="#555" stroke-linejoin="round" stroke-width="1.2"></polygon><polygon fill="#c8c8c8" points="323.62,313.68 322.80,314.05 321.90,314.38 320.95,314.66 319.95,314.90 318.90,315.08 317.82,315.22 316.72,315.30 315.61,315.33 314.50,315.30 313.40,315.22 312.32,315.08 311.27,314.90 310.27,314.66 309.32,314.38 308.42,314.05 307.60,313.68 306.85,313.27 306.19,312.83 305.62,312.35 305.14,311.85 304.77,311.33 304.50,310.80 304.34,310.25 304.28,309.70 304.34,309.15 304.50,308.60 304.77,308.07 305.14,307.55 305.62,307.05 306.19,306.57 306.85,306.13 307.60,305.72 308.42,305.35 309.32,305.02 310.27,304.74 311.27,304.50 312.32,304.32 313.40,304.18 314.50,304.10 315.61,304.07 316.72,304.10 317.82,304.18 318.90,304.32 319.95,304.50 320.95,304.74 321.90,305.02 322.80,305.35 323.62,305.72 324.37,306.13 325.03,306.57 325.60,307.05 326.08,307.55 326.45,308.07 326.72,308.60 326.88,309.15 326.94,309.70 326.88,310.25 326.72,310.80 326.45,311.33 326.08,311.85 325.60,312.35 325.03,312.83 324.37,313.27 323.62,313.68" stroke="#b1b1b1" stroke-linejoin="round" stroke-width="0.5"></polygon><g fill="none" stroke="#939393" stroke-width=".8"><path d="M112.10 269.50L77.46 286.70"></path><path d="M328.60 377.00L293.96 394.20"></path><path d="M88.28 281.32L304.79 388.82"></path><path d="M85.285 276.325l6 10"></path><path d="M301.785 383.825l6 10"></path></g><g transform="translate(196.5 332.1) rotate(26.4)"><rect fill="#f8f8f8" height="18" width="36" x="-18" y="-9"></rect><text fill="#757575" font-family="monospace" font-size="11" text-anchor="middle" y="4">100</text></g><path d="M390.2 160.3L422.2 118.3H540" fill="none" stroke="#ea580c" stroke-width="1.2"></path><rect fill="#fff8f4" height="27" rx="4" stroke="#f2c0a5" width="98" x="449" y="79"></rect><text fill="#b8450b" font-family="monospace" font-size="11" x="461" y="97">feature_02</text><g stroke-linecap="round" stroke-width="1.2"><path d="M55 358v-26m0 26 23 11m-23-11-19 12" stroke="#949494"></path><g fill="#777" font-family="monospace" font-size="9" stroke="none"><text x="51" y="326">Z</text><text x="83" y="376">X</text><text x="25" y="379">Y</text></g></g></svg>