<?xml version="1.0" encoding="UTF-8"?>
<svg xmlns="http://www.w3.org/2000/svg" xmlns:xlink="http://www.w3.org/1999/xlink" version="1.1" x="0px" y="0px" viewBox="0 0 499.3 222" style="enable-background:new 0 0 499.3 222;" xml:space="preserve">
<style type="text/css">
	.st0{fill:none;}
</style>
<g id="Schutzzone">
	<rect x="13.7" class="st0" width="664.5" height="222"></rect>
</g>
<g id="Logo">
	<g>
		<path d="M212.7,120.7l-8.1,14.6h-12.4l14.2-24.2l-13.3-22.6h12.1l7.7,13.6l7.7-13.6h12.2l-13.6,23l14.1,23.9h-12.6L212.7,120.7z"></path>
		<path d="M237.1,88.4h18.7c2.7,0,5.2,0.5,7.4,1.4c2.2,0.9,4.1,2.2,5.7,3.8c1.6,1.6,2.8,3.4,3.7,5.5c0.9,2.1,1.3,4.4,1.3,6.8    c0,2.4-0.4,4.6-1.3,6.7c-0.9,2.1-2.1,4-3.6,5.6c-1.6,1.6-3.5,2.9-5.7,3.8c-2.2,1-4.8,1.4-7.5,1.4h-7.4v11.7h-11.2V88.4z     M248.3,98.5v14.6h6.9c2.1,0,3.8-0.7,5.2-2c1.4-1.3,2.1-3.1,2.1-5.3s-0.7-3.9-2.1-5.3c-1.4-1.3-3.1-2-5.2-2H248.3z"></path>
		<path d="M279,88.4h11.2v36.1h20.4v10.7H279V88.4z"></path>
		<path d="M336.9,135.9c-3.3,0-6.5-0.6-9.4-1.9c-2.9-1.3-5.4-3-7.6-5.1c-2.2-2.2-3.9-4.7-5.1-7.6c-1.2-2.9-1.9-6.1-1.9-9.4    c0-3.3,0.6-6.5,1.9-9.4c1.2-2.9,2.9-5.5,5.1-7.6c2.2-2.2,4.7-3.9,7.6-5.2c2.9-1.3,6-1.9,9.4-1.9c3.3,0,6.5,0.6,9.4,1.9    c2.9,1.3,5.5,3,7.6,5.2s3.9,4.7,5.1,7.6c1.2,2.9,1.9,6,1.9,9.4c0,3.3-0.6,6.5-1.9,9.4c-1.2,2.9-2.9,5.5-5.1,7.6    c-2.2,2.2-4.7,3.9-7.6,5.1C343.4,135.2,340.2,135.9,336.9,135.9z M336.9,124.8c1.8,0,3.5-0.3,5.1-1c1.6-0.7,2.9-1.6,4-2.8    s2-2.6,2.7-4.1c0.6-1.6,1-3.2,1-5c0-1.8-0.3-3.5-1-5.1c-0.6-1.6-1.5-3-2.7-4.2c-1.2-1.2-2.5-2.1-4.1-2.8c-1.6-0.7-3.2-1-5-1    c-1.8,0-3.5,0.3-5,1c-1.6,0.7-2.9,1.6-4,2.8c-1.1,1.2-2,2.6-2.6,4.2c-0.6,1.6-1,3.3-1,5.1c0,1.8,0.3,3.5,0.9,5    c0.6,1.6,1.5,2.9,2.6,4.1c1.1,1.2,2.5,2.1,4,2.8C333.3,124.5,335,124.8,336.9,124.8z"></path>
		<path d="M366.8,88.4h20.1c2.8,0,5.3,0.4,7.5,1.3c2.2,0.9,4,2,5.5,3.5c1.5,1.5,2.6,3.2,3.4,5.1c0.8,1.9,1.2,4,1.2,6.3    c0,3-0.7,5.7-2,8.1c-1.3,2.4-3.2,4.3-5.5,5.7l8.7,16.9h-12.3l-6.6-14.1h-8.8v14.1h-11.2V88.4z M377.9,98.6V111h8.1    c2.4,0,4.2-0.6,5.3-1.8c1.1-1.2,1.7-2.7,1.7-4.5c0-1.9-0.6-3.4-1.7-4.5c-1.2-1.1-2.9-1.6-5.3-1.6H377.9z"></path>
		<path d="M410.8,88.4h32.3v10.4H422v7.7h21.2v10.4H422v8h21.2v10.4h-32.3V88.4z"></path>
	</g>
	<g>
		<path d="M111.5,70c-11.5,0-20.8,9.3-20.8,20.8h41.6C132.3,79.3,123,70,111.5,70z"></path>
		<path d="M111.5,55.7c-7.9,0-14.3,6.4-14.3,14.3h14.3h14.3C125.8,62.1,119.4,55.7,111.5,55.7z"></path>
		<path d="M111.5,153.2c11.5,0,20.8-9.3,20.8-20.8H90.7C90.7,143.9,100.1,153.2,111.5,153.2z"></path>
		<path d="M111.5,167.5c7.9,0,14.3-6.4,14.3-14.3h-14.3H97.3C97.3,161.1,103.7,167.5,111.5,167.5z"></path>
		<path d="M70,111.6c0,11.5,9.3,20.8,20.8,20.8V90.8C79.3,90.8,70,100.1,70,111.6z"></path>
		<path d="M55.7,111.6c0,7.9,6.4,14.3,14.3,14.3v-14.3V97.3C62.1,97.3,55.7,103.7,55.7,111.6z"></path>
		<path d="M76,147.1c3.8,3.8,9,6.1,14.7,6.1v-20.8H70C70,138.1,72.3,143.3,76,147.1z"></path>
		<path d="M76,76.1c-3.8,3.8-6.1,9-6.1,14.7h20.8V70C85,70,79.8,72.3,76,76.1z"></path>
		<path d="M132.3,90.8v41.6c11.5,0,20.8-9.3,20.8-20.8C153.1,100.1,143.8,90.8,132.3,90.8z"></path>
		<path d="M153.1,97.3v14.3v14.3c7.9,0,14.3-6.4,14.3-14.3C167.4,103.7,161,97.3,153.1,97.3z"></path>
		<path d="M147,147.1c3.8-3.8,6.1-9,6.1-14.7h-20.8v20.8C138.1,153.2,143.3,150.9,147,147.1z"></path>
		<path d="M147,76.1c-3.8-3.8-9-6.1-14.7-6.1v20.8h20.8C153.1,85.1,150.8,79.9,147,76.1z"></path>
	</g>
</g>
<g id="Vermaßung">
</g>
</svg>
